<?xml version="1.0" encoding="utf-8"?>
<svg width="38px" height="39px" viewBox="0 0 38 39" version="1.1" xmlns:xlink="http://www.w3.org/1999/xlink" xmlns="http://www.w3.org/2000/svg">
  <desc>Created with Lunacy</desc>
  <path d="M19.3115 38.623C30.4545 38.623 38 30.7815 38 19.7631C38 18.4783 37.8754 17.5282 37.6963 16.5394L19.3115 16.5394L19.3115 23.1816L30.2754 23.1816C29.8238 26.0238 26.9582 31.5057 19.3115 31.5057C12.7238 31.5057 7.34302 26.0471 7.34302 19.3115C7.34302 8.45653 20.1291 3.47292 27.0049 10.1074L32.2611 5.05372C28.8893 1.90779 24.5131 0 19.3115 0C8.62785 0 0 8.62785 0 19.3115C0 29.9951 8.62785 38.623 19.3115 38.623Z" id="Google-Icon" fill="#FFFFFF" stroke="none" />
</svg>